<svg width="120" height="119" viewBox="0 0 120 119" fill="none" xmlns="http://www.w3.org/2000/svg">
<rect width="119.194" height="118.772" rx="20" fill="white"/>
<path d="M56.3125 21.3467C62.5245 21.3467 68.2041 23.2341 72.8047 26.4785H78.3359C78.8518 26.4786 79.2695 26.8972 79.2695 27.4131V32.8955C82.4967 37.4121 84.3749 42.977 84.375 49.0781V71.5283C84.3749 89.7964 72.3797 103.801 55.6523 103.801C45.5492 103.801 37.1377 101.468 31.3672 94.6416C30.8745 94.0587 31.3062 93.1986 32.0693 93.1982H39.7773C40.0171 93.1983 40.2462 93.2914 40.4258 93.4502C43.0242 95.7488 47.4708 97.3446 55.542 97.3447C68.5277 97.3447 77.5526 85.7249 77.5527 71.3086V63.8252C73.811 71.3084 65.8868 76.8105 55.6523 76.8105C40.3557 76.8104 28.3605 64.5948 28.3604 49.0781C28.3606 33.8917 40.3558 21.3469 56.3125 21.3467ZM56.3125 27.8389C44.6475 27.8391 35.1836 37.3037 35.1836 48.9688C35.1838 60.7437 44.6476 70.3181 56.3125 70.3184C68.0876 70.3184 77.5525 60.7438 77.5527 48.9688C77.5527 37.3035 68.0878 27.8389 56.3125 27.8389Z" fill="#111111"/>
<path d="M89.8995 14.9709C90.4155 14.9709 90.8341 15.3896 90.8341 15.9055V32.0364C90.834 32.5523 90.4154 32.97 89.8995 32.97H85.2823C84.7667 32.9697 84.3488 32.5521 84.3488 32.0364V21.4631H73.5167C73.001 21.4629 72.5831 21.0444 72.5831 20.5286V15.9055C72.5831 15.3897 73.0009 14.9711 73.5167 14.9709L89.8995 14.9709Z" fill="#10B981"/>
</svg>
