<svg width="441" height="104" viewBox="0 0 441 104" fill="none" xmlns="http://www.w3.org/2000/svg">
<path d="M136.007 74.4884C119.043 74.4884 105.967 61.0591 105.967 44.5669C105.967 28.1926 119.279 14.8811 136.007 14.8811C153.088 14.8811 165.928 28.3104 165.928 44.5669C165.928 61.0591 152.852 74.4884 136.007 74.4884ZM136.007 67.5381C148.611 67.5381 158.624 57.1716 158.624 44.6847C158.624 32.1978 148.611 21.8314 136.007 21.8314C123.284 21.8314 113.271 32.1978 113.271 44.6847C113.271 57.1716 123.284 67.5381 136.007 67.5381Z" fill="#111111"/>
<path d="M283.06 73.6218C282.89 73.8985 282.589 74.0671 282.264 74.0671H265.216C264.481 74.0671 264.034 73.2585 264.424 72.6363L281.136 46.0031C283.777 41.821 284.877 39.0696 284.877 36.4283C284.877 33.6769 283.667 31.0356 281.136 26.9635L266.141 2.9523C265.338 1.6668 266.262 0 267.778 0H282.589C282.917 0 283.22 0.171149 283.389 0.451196L296.213 21.6809C297.626 24.1038 298.669 26.5267 299.427 29.0345C299.548 29.4356 299.914 29.7149 300.333 29.7149H304.831C305.263 29.7149 305.637 29.4182 305.752 29.0017C306.441 26.5056 307.572 24.0932 308.98 21.6809L321.804 0.451196C321.973 0.171149 322.276 0 322.603 0H339.205C339.94 0 340.387 0.809261 339.996 1.43143L323.947 26.9635C321.416 31.0356 320.315 33.6769 320.315 36.4283C320.315 39.0696 321.306 41.821 323.947 46.0031L340.658 72.6363C341.048 73.2585 340.601 74.0671 339.867 74.0671H322.927C322.603 74.0671 322.303 73.8998 322.132 73.6248L308.98 52.3863C307.569 49.9685 306.528 47.5507 305.771 45.1329C305.647 44.7367 305.282 44.4623 304.867 44.4623H300.326C299.91 44.4623 299.546 44.7368 299.42 45.1323C298.647 47.5503 297.514 49.9683 296.103 52.3863L283.06 73.6218Z" fill="#10B981"/>
<path d="M188.633 74.4883C183.332 74.4883 180.034 71.4254 178.62 65.5354L167.476 17.284C167.332 16.6574 167.808 16.059 168.451 16.059H173.346C173.813 16.059 174.217 16.3818 174.321 16.8368L185.099 64.1218C185.688 66.5956 186.748 67.7736 188.633 67.7736C190.282 67.7736 191.46 66.4778 191.932 64.4752L202.063 23.5982C203.594 17.5904 206.892 14.7632 212.076 14.7632C217.141 14.7632 220.439 17.5904 221.853 23.4804L231.866 64.4752C232.455 66.5956 233.633 67.7736 235.4 67.7736C237.167 67.7736 238.227 66.5956 238.816 64.1218L249.478 16.839C249.581 16.3829 249.986 16.059 250.454 16.059H255.232C255.874 16.059 256.35 16.6557 256.207 17.2818L245.178 65.5354C243.764 71.5432 240.583 74.4883 235.4 74.4883C229.981 74.4883 227.036 71.5432 225.623 65.771L215.61 24.6585C215.021 22.4202 213.725 21.2422 211.958 21.2422C210.191 21.2422 208.895 22.4202 208.424 24.6585L198.293 65.771C196.879 71.5432 193.934 74.4883 188.633 74.4883Z" fill="#111111"/>
<path d="M74.6198 73.4578C74.6198 74.0269 74.1585 74.4883 73.5893 74.4883H68.124C67.5549 74.4883 67.0935 74.0269 67.0935 73.4578V38.1919C67.0935 24.4746 74.984 14.7632 88.58 14.7632C91.9885 14.7632 95.2906 15.4012 98.1879 16.6773C98.5506 16.837 98.7769 17.2003 98.7769 17.5967V22.8019C98.7769 23.5972 97.9084 24.1007 97.1859 23.7683C94.6914 22.6206 91.9801 22.0467 89.1869 22.0467C80.2039 22.0467 74.6198 28.4805 74.6198 38.5561V73.4578Z" fill="#111111"/>
<path d="M29.9209 14.8816C36.5702 14.8817 42.6496 16.902 47.5742 20.3748H53.4951C54.0473 20.3748 54.4951 20.8225 54.4951 21.3748V27.2458C57.9494 32.0806 59.9609 38.0365 59.9609 44.5671V68.5984C59.9609 88.1531 47.1202 103.144 29.2148 103.144C18.3998 103.144 9.39485 100.647 3.21777 93.3386C2.69088 92.7145 3.15374 91.7937 3.9707 91.7937H12.2207C12.4772 91.7938 12.7229 91.8943 12.915 92.0642C15.6966 94.5247 20.4568 96.2322 29.0967 96.2322C42.9969 96.232 52.6571 83.7947 52.6572 68.363V60.3523C48.6521 68.3626 40.17 74.2525 29.2148 74.2527C12.8406 74.2527 0.000105188 61.177 0 44.5671C0 28.3108 12.84 14.8818 29.9209 14.8816ZM29.9209 21.8318C17.4343 21.832 7.3038 31.9623 7.30371 44.449C7.30371 57.0535 17.4342 67.3023 29.9209 67.3025C42.5254 67.3023 52.6572 57.0536 52.6572 44.449C52.6571 31.9623 42.5254 21.832 29.9209 21.8318Z" fill="#111111"/>
<path d="M65.8733 8.05591C66.391 8.05591 66.8171 8.44926 66.8684 8.95337C66.8718 8.98709 66.8743 9.02128 66.8743 9.05591V26.3235C66.8741 26.8755 66.4262 27.3232 65.8743 27.3235H60.9319C60.3797 27.3235 59.932 26.8757 59.9319 26.3235V15.0051L48.3372 15.0051C47.7849 15.0051 47.3372 14.5573 47.3372 14.0051V9.05591C47.3372 8.50362 47.7849 8.05591 48.3372 8.05591L65.8733 8.05591Z" fill="#10B981"/>
<path d="M374.596 74.0671C373.793 74.0671 373.085 73.9334 372.47 73.666C371.868 73.3985 371.38 73.0174 371.005 72.5226C370.644 72.0144 370.423 71.4127 370.343 70.7173H371.788C371.868 71.1051 372.022 71.4595 372.249 71.7804C372.49 72.1014 372.811 72.3621 373.212 72.5627C373.613 72.7499 374.088 72.8435 374.636 72.8435C375.144 72.8435 375.559 72.77 375.88 72.6229C376.214 72.4624 376.461 72.2551 376.622 72.0011C376.796 71.7336 376.882 71.4394 376.882 71.1185C376.882 70.6772 376.776 70.3362 376.562 70.0955C376.361 69.8414 376.067 69.6542 375.679 69.5338C375.291 69.4134 374.823 69.2998 374.275 69.1928C373.82 69.1126 373.386 69.0056 372.971 68.8719C372.556 68.7381 372.182 68.5643 371.848 68.3503C371.527 68.1364 371.273 67.8689 371.085 67.548C370.898 67.2136 370.805 66.8258 370.805 66.3845C370.805 65.8095 370.945 65.308 371.226 64.8801C371.52 64.4388 371.935 64.0978 372.47 63.8571C373.004 63.603 373.633 63.476 374.355 63.476C375.385 63.476 376.227 63.7368 376.882 64.2583C377.538 64.7664 377.919 65.5153 378.026 66.5049H376.622C376.568 65.9566 376.341 65.522 375.94 65.2011C375.539 64.8801 374.997 64.7196 374.315 64.7196C373.646 64.7196 373.131 64.8601 372.77 65.1409C372.423 65.4083 372.249 65.7761 372.249 66.2441C372.249 66.5383 372.342 66.7924 372.53 67.0064C372.717 67.2203 372.991 67.4075 373.352 67.568C373.727 67.7151 374.181 67.8422 374.716 67.9491C375.358 68.0695 375.946 68.23 376.481 68.4306C377.03 68.6178 377.471 68.912 377.805 69.3132C378.153 69.701 378.327 70.2559 378.327 70.9781C378.34 71.5798 378.193 72.1147 377.885 72.5828C377.578 73.0508 377.143 73.4186 376.582 73.686C376.02 73.9401 375.358 74.0671 374.596 74.0671Z" fill="#AAAAAA"/>
<path d="M387.167 73.8264C386.592 73.8264 386.097 73.7395 385.682 73.5657C385.268 73.3784 384.947 73.0776 384.72 72.663C384.506 72.2351 384.399 71.6534 384.399 70.9179V64.9202H382.633V63.7167H384.399L384.599 61.3698H385.803V63.7368H388.832V64.9202H385.803V70.9179C385.803 71.5865 385.937 72.0412 386.204 72.2819C386.471 72.5092 386.946 72.6229 387.628 72.6229H388.671V73.8264H387.167Z" fill="#AAAAAA"/>
<path d="M397.674 74.0671C396.912 74.0671 396.236 73.92 395.648 73.6258C395.073 73.3183 394.625 72.8569 394.304 72.2418C393.983 71.6133 393.823 70.8109 393.823 69.8347V63.7167H395.227V69.6742C395.227 70.744 395.461 71.5397 395.929 72.0612C396.41 72.5828 397.072 72.8435 397.915 72.8435C398.516 72.8435 399.051 72.7031 399.519 72.4223C400.001 72.1415 400.375 71.7269 400.643 71.1786C400.924 70.617 401.064 69.935 401.064 69.1326V63.7167H402.468V73.8264H401.184L401.104 72.0211C400.783 72.6764 400.315 73.1845 399.7 73.5456C399.098 73.8933 398.423 74.0671 397.674 74.0671Z" fill="#AAAAAA"/>
<path d="M412.748 74.0671C411.772 74.0671 410.916 73.8398 410.18 73.3851C409.458 72.9171 408.897 72.2819 408.495 71.4795C408.094 70.6772 407.894 69.7678 407.894 68.7515C407.894 67.7352 408.094 66.8325 408.495 66.0435C408.897 65.2412 409.465 64.6127 410.2 64.158C410.936 63.7033 411.792 63.476 412.768 63.476C413.624 63.476 414.373 63.6632 415.015 64.0376C415.67 64.3987 416.171 64.9135 416.519 65.5822V59.3839H417.923V73.8264H416.639L416.519 72.0011C416.305 72.3488 416.024 72.6831 415.676 73.004C415.342 73.325 414.928 73.5857 414.433 73.7863C413.951 73.9735 413.39 74.0671 412.748 74.0671ZM412.868 72.8435C413.577 72.8435 414.192 72.6764 414.714 72.3421C415.249 72.0077 415.663 71.533 415.957 70.9179C416.265 70.3027 416.419 69.5873 416.419 68.7716C416.419 67.9558 416.265 67.2404 415.957 66.6252C415.663 66.0101 415.249 65.5354 414.714 65.2011C414.192 64.8667 413.577 64.6996 412.868 64.6996C412.173 64.6996 411.558 64.8667 411.023 65.2011C410.488 65.5354 410.067 66.0101 409.759 66.6252C409.465 67.227 409.318 67.9425 409.318 68.7716C409.318 69.6007 409.472 70.3228 409.779 70.9379C410.087 71.5397 410.508 72.0077 411.043 72.3421C411.578 72.6764 412.186 72.8435 412.868 72.8435Z" fill="#AAAAAA"/>
<path d="M423.983 73.8264V63.7167H425.367V73.8264H423.983ZM424.685 61.3297C424.404 61.3297 424.164 61.2361 423.963 61.0488C423.763 60.8483 423.662 60.6009 423.662 60.3067C423.662 59.9991 423.756 59.7584 423.943 59.5845C424.144 59.3973 424.384 59.3037 424.665 59.3037C424.946 59.3037 425.187 59.3973 425.387 59.5845C425.588 59.7584 425.688 59.9991 425.688 60.3067C425.688 60.6009 425.588 60.8483 425.387 61.0488C425.2 61.2361 424.966 61.3297 424.685 61.3297Z" fill="#AAAAAA"/>
<path d="M435.887 74.0671C434.964 74.0671 434.129 73.8532 433.38 73.4253C432.644 72.984 432.063 72.3688 431.635 71.5798C431.207 70.7775 430.993 69.8481 430.993 68.7916C430.993 67.6951 431.207 66.7523 431.635 65.9633C432.076 65.1743 432.671 64.5659 433.42 64.1379C434.169 63.6966 435.005 63.476 435.927 63.476C436.89 63.476 437.739 63.6966 438.475 64.1379C439.21 64.5659 439.792 65.1743 440.22 65.9633C440.648 66.7523 440.862 67.6951 440.862 68.7916C440.862 69.8481 440.641 70.7775 440.2 71.5798C439.772 72.3688 439.184 72.984 438.435 73.4253C437.699 73.8532 436.85 74.0671 435.887 74.0671ZM435.907 72.8636C436.536 72.8636 437.111 72.7098 437.632 72.4022C438.167 72.0947 438.595 71.64 438.916 71.0382C439.25 70.4231 439.418 69.6675 439.418 68.7716C439.418 67.8622 439.257 67.1067 438.936 66.5049C438.615 65.9031 438.187 65.4551 437.652 65.1609C437.131 64.8534 436.556 64.6996 435.927 64.6996C435.326 64.6996 434.757 64.8534 434.222 65.1609C433.687 65.4685 433.253 65.9232 432.918 66.525C432.597 67.1133 432.437 67.8622 432.437 68.7716C432.437 69.6675 432.597 70.4231 432.918 71.0382C433.239 71.64 433.661 72.0947 434.182 72.4022C434.717 72.7098 435.292 72.8636 435.907 72.8636Z" fill="#AAAAAA"/>
<circle cx="354.973" cy="66.6854" r="7.38171" fill="#10B981"/>
</svg>
